<svg xmlns="http://www.w3.org/2000/svg" viewBox="0 0 2242.7513 1414.1582"><defs><style>.a{opacity:0.75;}.b,.c{fill:#131b36;}.c{isolation:isolate;}.d{fill:none;stroke:#131b36;}</style></defs><title>storyBackground</title><g class="a"><path class="b" d="M1219.9423,457.977,976.6977,621.136V809.06l243.2444,161.7024,245.4361-163.1591V621.136Zm226.1966,342.2854-226.11,150.312L995.937,801.6045V628.4774l224.0916-150.312,226.11,150.312Z" transform="translate(249.373 205.023)"/><path class="b" d="M1747.9423-205.023,1504.6978-41.864V146.06l243.2445,161.7024,245.436-163.1591V-41.864Zm226.1966,342.2854-226.11,150.312-224.0915-148.97V-34.5226l224.0915-150.312,226.11,150.312Z" transform="translate(249.373 205.023)"/><path class="b" d="M1372.3347,363.0915,1241.166,451.0744V552.4119l131.1687,87.1975,132.35-87.9829V451.0744ZM1494.31,547.6676,1372.381,628.7229,1251.54,548.3914V455.0332L1372.381,373.978,1494.31,455.0332Z" transform="translate(249.373 205.023)"/><polygon class="b" points="1855 475.459 1855 614.427 2034.876 734.004 2216.373 613.349 2216.373 475.459 2034.876 354.805 1855 475.459"/><polygon class="b" points="0 543.459 0 682.427 179.876 802.004 361.373 681.349 361.373 543.459 179.876 422.805 0 543.459"/><polygon class="b" points="962 1272.764 962 1328.903 1034.858 1377.208 1108.373 1328.467 1108.373 1272.764 1034.858 1224.023 962 1272.764"/><polygon class="b" points="1534.004 965.202 1534.004 999.361 1578.22 1028.754 1622.833 999.096 1622.833 965.202 1578.22 935.544 1534.004 965.202"/><polygon class="b" points="1867 836.764 1867 892.903 1939.858 941.208 2013.373 892.467 2013.373 836.764 1939.858 788.023 1867 836.764"/><polygon class="b" points="467 830.764 467 886.903 539.858 935.208 613.373 886.467 613.373 830.764 539.858 782.023 467 830.764"/><polygon class="b" points="607.004 374.202 607.004 408.361 651.22 437.754 695.833 408.096 695.833 374.202 651.22 344.544 607.004 374.202"/><polygon class="c" points="1449.213 913.852 1449.213 971.087 1523.296 1020.335 1598.047 970.643 1598.047 913.852 1523.296 864.16 1449.213 913.852"/><polygon class="c" points="565.213 296.852 565.213 354.087 639.296 403.335 714.047 353.643 714.047 296.852 639.296 247.16 565.213 296.852"/><polygon class="c" points="1144.368 795.806 1144.368 861.796 1229.784 918.578 1315.97 861.284 1315.97 795.806 1229.784 738.512 1144.368 795.806"/><path class="b" d="M1869.5142,860.67l-74.31,52.3825v60.3333l74.31,51.9149,74.98-52.3824V913.0525Zm69.1024,109.8913-69.0761,48.2579-68.4593-47.8271V915.4094l68.4593-48.2578,69.0761,48.2578Z" transform="translate(249.373 205.023)"/><line class="d" x1="2106.1699" y1="1027.335" x2="2106.1699" y2="1338.2367"/><path class="b" d="M573.974,244.0074,404.1986,363.6843V501.5266L573.974,620.1352,745.279,500.4581V363.6843Zm157.8766,251.066L574.0342,605.3271,417.627,496.0578V369.0692L574.0342,258.8155,731.8506,369.0692Z" transform="translate(249.373 205.023)"/><path class="b" d="M37.974,833.0074-131.8014,952.6843v137.8423L37.974,1209.1353l171.305-119.6772V952.6843Zm157.8766,251.066L38.0342,1194.3271-118.373,1085.0577V958.0692L38.0342,847.8155,195.8506,958.0692Z" transform="translate(249.373 205.023)"/><line class="d" x1="1714.3547" y1="1012.2033" x2="1854.2705" y2="1103.0698"/><line class="d" x1="994.3547" y1="705.2033" x2="1134.2704" y2="796.0698"/><line class="d" x1="515.8644" y1="479.5216" x2="655.78" y2="570.3881"/><line class="d" x1="823.873" y1="286.2912" x2="823.873" y2="453.1237"/></g></svg>