<svg xmlns="http://www.w3.org/2000/svg" viewBox="0 0 1719.5 995.3942"><defs><style>.a{fill:gray;}.a,.b,.c,.d,.e,.f{stroke:#000;stroke-miterlimit:10;}.b{fill:#333;}.c,.f{fill:#fff;}.d,.e{fill:#666;}.d,.f{stroke-width:0.5px;}</style></defs><title>Responsive Device</title><rect class="a" x="829.8713" y="700.293" width="162.3094" height="122.3972"/><rect class="b" x="343.9048" y="0.5" width="1113.9176" height="699.793" rx="6"/><rect class="c" x="369.5512" y="51.7045" width="1056.3415" height="594.7231" rx="6"/><rect class="d" x="744.7254" y="822.6902" width="327.2796" height="23.9473" rx="4.5"/><rect class="d" x="763.351" y="849.2983" width="292.6891" height="5.3216" rx="1"/><rect class="b" x="12.3093" y="504.8059" width="789.2587" height="456.6285" rx="6"/><rect class="c" x="43.801" y="550.0751" width="730.2119" height="393.6452" rx="6"/><rect class="e" x="0.5" y="961.4343" width="812.8774" height="33.4598" rx="6"/><circle class="c" cx="406.9387" cy="529.4087" r="8.857"/><rect class="b" x="1293.8955" y="259.929" width="425.1045" height="601.343" rx="6"/><rect class="c" x="1317.7234" y="292.6568" width="376.7439" height="541.5682" rx="6"/><ellipse class="c" cx="1500.019" cy="277.7158" rx="6.7016" ry="6.4033"/><rect class="b" x="1166.882" y="590.4335" width="219.5168" height="395.1303" rx="6"/><ellipse class="c" cx="1302.9846" cy="608.043" rx="4.3062" ry="3.8487"/><ellipse class="c" cx="1312.3657" cy="608.043" rx="4.3062" ry="3.8487"/><rect class="a" x="1241.9305" y="948.2132" width="69.4198" height="27.5215" rx="5.1716"/><rect class="c" x="1187.5203" y="621.8867" width="178.2401" height="312.5657" rx="6"/><rect class="f" x="1244.0455" y="606.3984" width="53.2162" height="5.3216" rx="1"/></svg>