<svg xmlns="http://www.w3.org/2000/svg" viewBox="0 0 50 50"><defs><style>.cls-1{fill:#4267b2;}.cls-2{fill:#fff;}</style></defs><title>Asset 1</title><g id="Layer_2" data-name="Layer 2"><g id="Layer_2-2" data-name="Layer 2"><rect class="cls-1" width="50" height="50"/><path class="cls-2" d="M26.09,50V30.9H19.48V23.21h6.61V17.45a10.49,10.49,0,0,1,1-4.73,9.19,9.19,0,0,1,5.3-4.51,19.42,19.42,0,0,1,4.67-.39,24.43,24.43,0,0,1,4.6.37v6.59s-3,0-4.27,0a4.73,4.73,0,0,0-2.43.31,3,3,0,0,0-1.18,2.24v5.91l7.54,0-1.07,7.69H33.79V50Z"/></g></g></svg>