<?xml version="1.0" encoding="utf-8"?>
<!-- Generator: Adobe Illustrator 23.0.1, SVG Export Plug-In . SVG Version: 6.00 Build 0)  -->
<svg version="1.1" id="Layer_1" xmlns="http://www.w3.org/2000/svg" xmlns:xlink="http://www.w3.org/1999/xlink" x="0px" y="0px"
	 viewBox="0 0 512 512" style="enable-background:new 0 0 512 512;" xml:space="preserve">
<style type="text/css">
	.st0{fill:#171515;}
	.st1{fill:#FFFFFF;}
</style>
<rect class="st0" width="512" height="512"/>
<path class="st1" d="M119,255c17,30,49,48,102,53c-8,6-17,17-18,30c-10,6-29,8-44,3c-21-7-29-48-61-42c-7,1-6,6,0,10
	c10,6,21,16,26,30c12,31,37,39,77,33v45c0,14-20,18-20,25c0,3,7,3,12,3c10,0,32-9,32-23c0-12,0-52,1-59c0-15,8-20,8-20s1,82-2,92
	c-4,13-10,11-10,17c0,9,26,2,35-17c7-15,4-95,3-94h7c0,0,0,37,1,53c0,17-1,39,9,50c7,7,29,19,29,8c0-6-12-12-12-29v-79
	c10,0,8,26,8,26l1,48c0,0-2,18,19,25c8,3,24,3,25-1s-20-11-20-25v-49c0-36-5-49-22-60c53-5,86-18,102-53c10-20,12-44,12-62
	c0-50-24-67-29-76c7-38-1-55-5-60c-14-5-48,12-66,24c-30-9-94-8-118,2c-44-31-67-26-67-26s-15,27-4,66c-15,18-25,31-26,65
	C104,215,107,232,119,255z"/>
</svg>
