<?xml version="1.0" encoding="utf-8"?>
<!-- Generator: Adobe Illustrator 23.0.1, SVG Export Plug-In . SVG Version: 6.00 Build 0)  -->
<svg version="1.1" xmlns="http://www.w3.org/2000/svg" xmlns:xlink="http://www.w3.org/1999/xlink" x="0px" y="0px"
	 viewBox="0 0 64 64" style="enable-background:new 0 0 64 64;" xml:space="preserve">
<style type="text/css">
	.st0{fill-rule:evenodd;clip-rule:evenodd;fill:#643584;}
	.st1{fill-rule:evenodd;clip-rule:evenodd;fill:#E24329;}
	.st2{fill-rule:evenodd;clip-rule:evenodd;fill:#FC6D26;}
	.st3{fill-rule:evenodd;clip-rule:evenodd;fill:#FCA326;}
</style>
<g id="Layer_2">
	<rect x="0" class="st0" width="64" height="64"/>
</g>
<g id="Layer_1">
	<path class="st1" d="M32,57.9L42.4,26H21.6L32,57.9z"/>
	<path class="st2" d="M32,57.9L21.6,26H7.1L32,57.9z"/>
	<path class="st3" d="M7.1,26L4,35.7c-0.3,0.9,0,1.9,0.8,2.4L32,57.9L7.1,26z"/>
	<path class="st1" d="M7.1,26h14.5L15.4,6.8c-0.3-1-1.7-1-2,0L7.1,26z"/>
	<path class="st2" d="M32,57.9L42.4,26h14.5L32,57.9z"/>
	<path class="st3" d="M56.9,26l3.1,9.7c0.3,0.9,0,1.9-0.8,2.4L32,57.9L56.9,26z"/>
	<path class="st1" d="M56.9,26H42.4l6.2-19.2c0.3-1,1.7-1,2,0L56.9,26z"/>
</g>
</svg>
